<svg version="1.2" xmlns="http://www.w3.org/2000/svg" viewBox="0 0 256 128" width="256" height="128"><style>.a{fill:none;stroke:#a5aa98;stroke-miterlimit:100;stroke-width:2}</style><path class="a" d="m17.5 97c-1.3-2.2 1.5-7.5 2.2-9.3 3.9-10.2 7-21.3 11.9-31.1 1.5-2.8 3-5.6 4.7-8.2 0.1-0.2 2.5-3.1 2.3-3.2-2.7-1.2-3.1 13.6-3.1 14 0.3 4.9 7.2 32.3 1.2 35.2-9.5 4.6-13.9-13.3-13.9-18.9 0-0.9-0.9-9 0.6-9.2 7.1-0.9 11 7.6 17.9 7.7 3.8 0 6-1.3 9-3.8 1-0.8 1.4-3.8 2.6-3.1 3.4 1.9 4.2 26.1 14.5 23.2 7.4-2.1 12.9-17.4 15.6-23.5 1.4-3.2 2.9-6.3 4.3-9.5 0.8-1.9 3.8-6.4 1.8-5.8-10.2 3.4-15.2 29.2-9.2 38.4 3.6 5.4 16.5-11.1 18.2-13.9 0.1-0.3 0.2-0.7 0.5-0.8 0.8-0.2-0.4 1.6-0.5 2.4-0.3 1-1.9 8.3 0.2 8.7 2.2 0.5 7-4.1 8.4-5.5 7.5-7.2 12.9-16.3 17.8-25.3 0.6-1.1 6-9.1 4.7-10.3-2.6-2.8-10.3 10.2-10.6 10.8-3.7 7.1-10.3 22.4-4.5 30.4 3.4 4.7 19.5-11.3 19.5-16.4 0-0.1-3.3 4.5-3.5 5.1-1 2.3-4.3 11.7-1.2 13.7 6.4 4.1 19.7-7 25.4-10.1 1.9-1 3.6-2.2 5.4-3.4 1.2-0.8 3.3-3.8 3.6-2.4 0.4 1.7-7.9 16.9 2 13.1 2.3-0.9 22.5-16.1 25.6-13.1 2.2 2.1-9 14.7-10.1 16-10.9 12.6-23.9 23.3-40 28.4-9.6 3-21.2 0.4-18.5-12.2 3-13.3 24.1-9.8 33.1-9.4 16.3 0.6 32.2 0.5 48.5-0.7 8.9-0.7 19.7-0.8 25.9-8.5 6.9-8.6-25.8-6.1-24 7.5 1.2 8.4 24.3 6 30.2 5.5"/></svg>