<svg version="1.2" xmlns="http://www.w3.org/2000/svg" viewBox="0 0 1086 948" width="96" height="84"><style>.a{fill:#f0f3ee}</style><path fill-rule="evenodd" class="a" d="m510.5 827.3c0 0-13.8 41.1-97.1 50-83.2 8.8-118.7-8.9-118.7-8.9 0 0 55.5-43.3 108.8-45.5 53.2-2.2 107 4.4 107 4.4zm0 0c0 0 6.2-43-62.7-90.5-68.9-47.5-108.6-48.8-108.6-48.8 0 0 22.8 58.6 78.3 92.9 45.3 28.1 93 46.4 93 46.4zm-98.7-30.5c0 0-42.5-19.1-106.6-19.1-64.1 0-112.3 33.3-112.3 33.3 0 0 47.4 19.1 115.7 19.1 68.2 0 103.2-33.3 103.2-33.3zm-78.5-40.8c0 0-3.4-46.4-34-102.7-30.6-56.3-82.9-82.8-82.9-82.8 0 0 5.8 50.8 38.4 110.8 32.6 59.9 78.5 74.7 78.5 74.7zm-32-5.8c0 0-36.8-28.5-99.1-43.5-62.3-15-117 6-117 6 0 0 41.6 29.8 108 45.7 66.3 16 108.1-8.2 108.1-8.2zm-55.1-49.5c0 0-22.9-40.5-74.6-78.4-51.7-37.9-110.3-39.7-110.3-39.7 0 0 27 43.5 82 83.9 55 40.4 102.9 34.2 102.9 34.2zm-54.8-83.3c0 0 15.5-41.5 11.4-102.4-4-60.8-38.6-104.5-38.6-104.5 0 0-15.2 46.2-10.9 111 4.3 64.8 38.1 95.9 38.1 95.9zm-43.5-39.4c0 0-15.9-36.9-56.8-74.2-40.9-37.4-91.1-44.2-91.1-44.2 0 0 19.1 39.8 62.7 79.6 43.5 39.7 85.2 38.8 85.2 38.8zm-24.6-81.8c0 0-2-40.2-27.2-89.5-25.2-49.3-69.8-73.4-69.8-73.4 0 0 4 44.1 30.8 96.6 26.8 52.5 66.2 66.3 66.2 66.3zm-17.2-119.9c0 0 3.4-40.1-14.9-92.3-18.4-52.3-59.3-82.1-59.3-82.1 0 0-2 44.1 17.5 99.8 19.5 55.6 56.7 74.6 56.7 74.6zm16.6-79c0 0 18.4-35.8 21.2-91.1 2.9-55.3-23.7-98.4-23.7-98.4 0 0-18.7 40.1-21.7 98.9-3 58.9 24.2 90.6 24.2 90.6zm45.3-95.1c0 0 24-32.3 35.8-86.4 11.7-54.1-7.5-101-7.5-101 0 0-24.9 36.5-37.4 94.1-12.6 57.7 9.1 93.3 9.1 93.3zm-42.6 242.4c0 0 29.9-26.8 52.3-77.5 22.4-50.6 13-100.4 13-100.4 0 0-31.7 30.8-55.6 84.7-23.8 54-9.7 93.2-9.7 93.2zm33.1-181c0 0 38.3-12.3 79.4-49.4 41-37.2 52.7-86.5 52.7-86.5 0 0-41.5 15.2-85.3 54.8-43.7 39.5-46.8 81.1-46.8 81.1zm56.6-110.8c0 0 36.2-17.5 71.8-59.9 35.5-42.4 40.3-92.8 40.3-92.8 0 0-39 20.7-76.9 65.9-37.9 45.2-35.2 86.8-35.2 86.8zm301.1 700.5c0 55.7-91.6 116.3-91.6 86.7 0-29.6 91.6-67 91.6-86.7zm53.1 0c0 55.7 91.6 116.3 91.6 86.7 0-29.6-91.6-67-91.6-86.7zm5.8-26c0 0 13.8 41.1 97 50 83.2 8.8 118.7-8.9 118.7-8.9 0 0-55.5-43.3-108.7-45.5-53.3-2.2-107 4.4-107 4.4zm0 0c0 0-6.3-43 62.6-90.5 69-47.5 108.6-48.8 108.6-48.8 0 0-22.7 58.6-78.2 92.9-45.4 28.1-93 46.4-93 46.4zm98.7-30.5c0 0 42.4-19.1 106.5-19.1 64.1 0 112.4 33.3 112.4 33.3 0 0-47.5 19.1-115.7 19.1-68.3 0-103.2-33.3-103.2-33.3zm78.4-40.8c0 0 3.5-46.4 34-102.7 30.6-56.3 82.9-82.8 82.9-82.8 0 0-5.8 50.8-38.4 110.8-32.5 59.9-78.5 74.7-78.5 74.7zm32-5.8c0 0 36.8-28.5 99.1-43.5 62.3-15 117 6 117 6 0 0-41.6 29.8-108 45.7-66.3 16-108.1-8.2-108.1-8.2zm55.2-49.5c0 0 22.9-40.5 74.5-78.4 51.7-37.9 110.3-39.7 110.3-39.7 0 0-26.9 43.5-81.9 83.9-55 40.4-102.9 34.2-102.9 34.2zm54.7-83.3c0 0-15.5-41.5-11.4-102.4 4-60.8 38.7-104.5 38.7-104.5 0 0 15.2 46.2 10.8 111-4.3 64.8-38.1 95.9-38.1 95.9zm43.5-39.4c0 0 15.9-36.9 56.8-74.2 40.9-37.4 91.1-44.2 91.1-44.2 0 0-19.1 39.8-62.7 79.6-43.5 39.7-85.2 38.8-85.2 38.8zm24.7-81.8c0 0 1.9-40.2 27.2-89.5 25.2-49.3 69.7-73.4 69.7-73.4 0 0-3.9 44.1-30.7 96.6-26.9 52.5-66.2 66.3-66.2 66.3zm17.2-119.9c0 0-3.5-40.1 14.9-92.3 18.3-52.3 59.2-82.1 59.2-82.1 0 0 2.1 44.1-17.5 99.8-19.5 55.6-56.6 74.6-56.6 74.6zm-16.6-79c0 0-18.4-35.8-21.3-91.1-2.8-55.3 23.8-98.4 23.8-98.4 0 0 18.6 40.1 21.6 98.9 3.1 58.9-24.1 90.6-24.1 90.6zm-45.4-95.1c0 0-23.9-32.3-35.7-86.4-11.8-54.1 7.4-101 7.4-101 0 0 24.9 36.5 37.4 94.1 12.6 57.7-9.1 93.3-9.1 93.3zm42.7 242.4c0 0-30-26.8-52.4-77.5-22.4-50.6-13-100.4-13-100.4 0 0 31.8 30.8 55.6 84.7 23.9 54 9.8 93.2 9.8 93.2zm-33.2-181c0 0-38.2-12.3-79.3-49.4-41.1-37.2-52.7-86.5-52.7-86.5 0 0 41.5 15.2 85.2 54.8 43.7 39.5 46.8 81.1 46.8 81.1zm-56.6-110.8c0 0-36.2-17.5-71.7-59.9-35.6-42.4-40.4-92.8-40.4-92.8 0 0 39.1 20.7 76.9 65.9 37.9 45.2 35.3 86.8 35.2 86.8z"/></svg>